<svg width="20" height="20" viewBox="0 0 20 20" fill="none" xmlns="http://www.w3.org/2000/svg">
<path d="M18.175 8.54169C18.125 8.50836 17.7084 8.18336 16.8084 8.18336C16.575 8.18336 16.3417 8.20836 16.1084 8.25002C15.9334 7.08336 14.9584 6.49169 14.9167 6.46669L14.675 6.32502L14.525 6.55002C14.325 6.85002 14.1667 7.19169 14.1 7.54169C13.9334 8.20836 14.0334 8.84169 14.375 9.38336C13.9667 9.61669 13.3 9.67502 13.1584 9.67502H2.18335C1.90002 9.67502 1.66669 9.90836 1.66669 10.2C1.66669 11.1584 1.81669 12.1167 2.15002 13.0167C2.52502 14.0084 3.09169 14.7417 3.81669 15.1917C4.63335 15.6917 5.97502 15.975 7.50002 15.975C8.15835 15.975 8.84169 15.9167 9.51669 15.7917C10.45 15.625 11.35 15.3 12.175 14.825C12.8583 14.4343 13.4698 13.9298 13.9834 13.3334C14.8584 12.3584 15.375 11.25 15.75 10.2917H15.9084C16.8584 10.2917 17.45 9.90836 17.775 9.58336C17.9917 9.38336 18.15 9.14169 18.2667 8.85836L18.3334 8.65836L18.175 8.54169ZM3.20835 9.36669H4.67502C4.74169 9.36669 4.80835 9.30836 4.80835 9.23336V7.91669C4.80835 7.85002 4.75002 7.78336 4.67502 7.78336H3.20835C3.13335 7.78336 3.07502 7.84169 3.07502 7.91669V9.23336C3.08335 9.30836 3.13335 9.36669 3.20835 9.36669ZM5.23335 9.36669H6.70002C6.76669 9.36669 6.83335 9.30836 6.83335 9.23336V7.91669C6.83335 7.85002 6.77502 7.78336 6.70002 7.78336H5.23335C5.15835 7.78336 5.10002 7.84169 5.10002 7.91669V9.23336C5.10835 9.30836 5.15835 9.36669 5.23335 9.36669ZM7.29169 9.36669H8.75002C8.83335 9.36669 8.89169 9.30836 8.89169 9.23336V7.91669C8.89169 7.85002 8.84169 7.78336 8.75002 7.78336H7.29169C7.22502 7.78336 7.16669 7.84169 7.16669 7.91669V9.23336C7.16669 9.30836 7.21669 9.36669 7.29169 9.36669ZM9.32502 9.36669H10.8C10.8667 9.36669 10.925 9.30836 10.925 9.23336V7.91669C10.925 7.85002 10.875 7.78336 10.8 7.78336H9.32502C9.25835 7.78336 9.20002 7.84169 9.20002 7.91669V9.23336C9.20002 9.30836 9.25835 9.36669 9.32502 9.36669ZM5.23335 7.50002H6.70002C6.76669 7.50002 6.83335 7.42502 6.83335 7.35002V6.04169C6.83335 5.96669 6.77502 5.90836 6.70002 5.90836H5.23335C5.15835 5.90836 5.10002 5.95836 5.10002 6.04169V7.35002C5.10835 7.42502 5.15835 7.50002 5.23335 7.50002ZM7.29169 7.50002H8.75002C8.83335 7.50002 8.89169 7.42502 8.89169 7.35002V6.04169C8.89169 5.96669 8.84169 5.90836 8.75002 5.90836H7.29169C7.22502 5.90836 7.16669 5.95836 7.16669 6.04169V7.35002C7.16669 7.42502 7.21669 7.50002 7.29169 7.50002ZM9.32502 7.50002H10.8C10.8667 7.50002 10.925 7.42502 10.925 7.35002V6.04169C10.925 5.96669 10.8667 5.90836 10.8 5.90836H9.32502C9.25835 5.90836 9.20002 5.95836 9.20002 6.04169V7.35002C9.20002 7.42502 9.25835 7.50002 9.32502 7.50002ZM9.32502 5.60002H10.8C10.8667 5.60002 10.925 5.54169 10.925 5.46669V4.16669C10.925 4.08336 10.8667 4.02502 10.8 4.02502H9.32502C9.25835 4.02502 9.20002 4.07502 9.20002 4.16669V5.46669C9.20002 5.53336 9.25835 5.60002 9.32502 5.60002ZM11.375 9.36669H12.8417C12.9167 9.36669 12.975 9.30836 12.975 9.23336V7.91669C12.975 7.85002 12.9167 7.78336 12.8417 7.78336H11.375C11.3084 7.78336 11.25 7.84169 11.25 7.91669V9.23336C11.25 9.30836 11.3084 9.36669 11.375 9.36669Z" fill="white"/>
</svg>
