<svg width="20" height="20" viewBox="0 0 20 20" fill="none" xmlns="http://www.w3.org/2000/svg">
<path d="M19.7922 15.3812C19.0797 15.5625 18.6391 15.389 18.2437 14.7953C17.3562 13.4656 16.3766 12.1969 15.4312 10.9047C15.3094 10.7375 15.1828 10.5734 15.025 10.3656C13.9063 11.875 12.7891 13.3125 11.7406 14.8078C11.3656 15.3422 10.9719 15.575 10.2719 15.3859L14.4781 9.7406L10.5625 4.64217C11.2359 4.51092 11.7016 4.5781 12.1141 5.18123C13.025 6.51248 14.0297 7.77967 15.0312 9.12029C16.0391 7.78435 17.0312 6.5156 17.9687 5.19685C18.3453 4.66248 18.75 4.45935 19.4266 4.65623C18.9141 5.33592 18.4125 6.00467 17.9078 6.66873C17.2266 7.56404 16.5578 8.47029 15.8516 9.34685C15.6 9.65935 15.6406 9.86248 15.8656 10.1578C17.1719 11.875 18.4625 13.6094 19.7922 15.3812ZM0.207813 9.64685C0.320313 9.08279 0.395313 8.50779 0.551563 7.95467C1.48906 4.60623 5.33281 3.21404 7.97344 5.28904C9.52031 6.50623 9.90469 8.22185 9.82813 10.1562H1.10938C0.978125 13.6265 3.47656 15.7219 6.66094 14.6531C7.77813 14.2781 8.43594 13.4031 8.76562 12.3094C8.93281 11.7609 9.20938 11.675 9.725 11.8312C9.46094 13.2 8.8625 14.3437 7.6125 15.0594C5.7375 16.1312 3.06094 15.7844 1.65312 14.2953C0.821875 13.4203 0.46875 12.3312 0.3125 11.1547C0.289063 10.9672 0.240625 10.7828 0.203125 10.5969C0.20625 10.2802 0.207813 9.96352 0.207813 9.64685ZM1.125 9.41404H9.00469C8.95313 6.90467 7.39063 5.12185 5.25469 5.10623C2.91094 5.08748 1.22656 6.8281 1.125 9.41404Z" fill="white"/>
</svg>
