<svg width="20" height="20" viewBox="0 0 20 20" fill="none" xmlns="http://www.w3.org/2000/svg">
<path d="M5 2.5C4.33696 2.5 3.70107 2.76339 3.23223 3.23223C2.76339 3.70107 2.5 4.33696 2.5 5V15C2.5 15.663 2.76339 16.2989 3.23223 16.7678C3.70107 17.2366 4.33696 17.5 5 17.5H15C15.663 17.5 16.2989 17.2366 16.7678 16.7678C17.2366 16.2989 17.5 15.663 17.5 15V5C17.5 4.33696 17.2366 3.70107 16.7678 3.23223C16.2989 2.76339 15.663 2.5 15 2.5H5ZM11.1117 13.3792C11.7117 13.8625 12.3106 14.1008 12.9083 14.0942C13.275 14.0942 13.5561 14.0269 13.7517 13.8925C13.8427 13.8334 13.9168 13.7516 13.9666 13.6552C14.0165 13.5587 14.0403 13.451 14.0358 13.3425C14.0371 13.2242 14.0124 13.1071 13.9634 12.9994C13.9145 12.8916 13.8425 12.796 13.7525 12.7192C13.5569 12.5486 13.1869 12.3775 12.6425 12.2058C11.9886 12.0169 11.4844 11.7725 11.13 11.4725C10.7822 11.1725 10.605 10.7539 10.5983 10.2167C10.5983 9.70944 10.8183 9.28472 11.2583 8.9425C11.6861 8.60028 12.2333 8.42917 12.9 8.42917C13.8289 8.42917 14.5742 8.65528 15.1358 9.1075L14.4942 10.1067C14.2631 9.92703 13.9981 9.79606 13.715 9.72167C13.4606 9.63644 13.1949 9.59009 12.9267 9.58417C12.61 9.58417 12.3564 9.64222 12.1658 9.75833C11.9769 9.875 11.8825 10.0278 11.8825 10.2167C11.8825 10.4244 11.9983 10.6017 12.23 10.7483C12.4633 10.8894 12.8606 11.0453 13.4217 11.2158C14.1 11.4175 14.5828 11.6864 14.87 12.0225C15.1572 12.3586 15.3008 12.7864 15.3008 13.3058C15.3008 13.8375 15.0961 14.2958 14.6867 14.6808C14.2833 15.0597 13.6967 15.2583 12.9267 15.2767C11.9183 15.2767 11.075 14.9742 10.3967 14.3692L11.1117 13.3792ZM6.50333 13.9108C6.69889 14.0331 6.93417 14.0942 7.20917 14.0942C7.49639 14.0942 7.73472 14.0117 7.92417 13.8467C8.11306 13.6756 8.20778 13.3792 8.20833 12.9575V8.53917H9.44583V13.1958C9.4275 13.9169 9.21972 14.4364 8.8225 14.7542C8.60515 14.9379 8.35245 15.0752 8.08 15.1575C7.82735 15.2344 7.56493 15.2746 7.30083 15.2767C6.8425 15.2767 6.43611 15.1972 6.08167 15.0383C5.70278 14.8678 5.385 14.5653 5.12833 14.1308L5.99 13.425C6.14833 13.6389 6.31944 13.8008 6.50333 13.9108Z" fill="white"/>
</svg>
