<svg width="20" height="20" viewBox="0 0 20 20" fill="none" xmlns="http://www.w3.org/2000/svg">
<g clip-path="url(#clip0_178_152)">
<path d="M11.802 2.88759C11.4385 2.31548 11.5548 1.93821 11.7554 1.54872C11.9349 1.20005 12.0083 0.594111 11.3738 0.117275C11.958 -0.097764 12.8798 0.282431 12.8957 0.978799C12.5567 1.4452 11.6308 1.63056 11.802 2.88759ZM15.9962 15.7436C15.7126 16.6629 15.8419 17.152 14.6084 19.0608C16.7893 17.5885 17.8182 15.6877 18.1578 13.5304C18.371 14.43 18.3911 15.246 18.3074 16.017C20.1146 13.6378 21.3528 8.84013 17.1879 4.01739C17.0204 6.14915 14.9587 7.82767 12.581 7.1695C16.6578 6.72009 16.9191 1.5361 13.4168 0.339072C13.4852 1.78126 11.5175 1.30899 12.0961 3.23837C10.0919 2.10442 5.71298 1.87138 3.97216 3.59173C3.07474 4.4786 2.46216 5.21208 1.34056 5.26056C0.414502 5.30056 -0.808388 6.80329 0.782705 7.57181C0.934658 8.21224 1.46872 8.57689 1.77841 8.63974C1.70134 9.78017 1.94396 9.19872 2.29942 8.70161C2.17997 10.1432 2.37685 9.62388 2.93396 8.8822C7.64763 7.92892 10.2508 11.773 10.2802 14.134C10.2595 13.7056 9.5747 13.2074 9.21231 13.3447C8.96747 13.8634 8.70067 14.3037 8.37142 14.5209C8.40583 14.177 8.38235 13.833 8.31985 13.4891C8.21126 13.905 8.00685 14.3369 7.68013 14.7892C7.0302 14.8254 6.12063 14.342 6.3852 13.5407C6.75845 12.7614 6.02638 12.5994 5.43661 12.8225C4.99345 12.9901 4.69395 13.4544 4.65302 13.5988C4.50517 14.1195 4.5538 15.2822 5.56497 16.0531C5.29989 16.1019 5.02774 16.1454 4.8427 16.2543C6.56274 17.2945 8.31841 16.9431 9.29606 16.5505C10.8968 15.9078 12.0008 14.1289 12.1735 12.7566C12.6178 14.6868 11.8218 16.832 10.0377 17.9826C10.5474 18.0365 11.5452 17.6912 12.5655 17.3274C11.7942 18.2981 10.8722 19.2186 9.36184 19.9429C12.3368 19.6937 14.5127 18.2001 15.9962 15.7436" fill="white"/>
</g>
<defs>
<clipPath id="clip0_178_152">
<rect width="20" height="20" fill="white"/>
</clipPath>
</defs>
</svg>
