<svg width="20" height="20" viewBox="0 0 20 20" fill="none" xmlns="http://www.w3.org/2000/svg">
<g clip-path="url(#clip0_178_142)">
<path d="M9.4825 0.127534C9.62591 0.0438514 9.78896 -0.000244141 9.955 -0.000244141C10.121 -0.000244141 10.2841 0.0438514 10.4275 0.127534L18.195 4.65878C18.3368 4.74122 18.4544 4.85941 18.5363 5.00154C18.6181 5.14367 18.6612 5.30478 18.6612 5.46878V14.5313C18.6612 14.6953 18.6181 14.8564 18.5363 14.9985C18.4544 15.1407 18.3368 15.2588 18.195 15.3413L10.4275 19.8725C10.2841 19.9562 10.121 20.0003 9.955 20.0003C9.78896 20.0003 9.62591 19.9562 9.4825 19.8725L7.54125 18.74C7.32642 18.6147 7.17018 18.4092 7.10689 18.1687C7.04359 17.9282 7.07844 17.6724 7.20375 17.4575C7.32906 17.2427 7.53459 17.0865 7.7751 17.0232C8.01562 16.9599 8.27142 16.9947 8.48625 17.12L9.955 17.9775L16.7862 13.9925V6.00753L9.955 2.02253L3.125 6.00753V13.9925L4.52125 14.8075C4.95125 14.945 5.48375 14.9788 5.8575 14.8138C6.05315 14.7281 6.21368 14.5781 6.3125 14.3888C6.4425 14.1538 6.5625 13.7625 6.5625 13.125V6.56253C6.5625 6.31389 6.66127 6.07544 6.83709 5.89962C7.0129 5.72381 7.25136 5.62503 7.5 5.62503C7.74864 5.62503 7.9871 5.72381 8.16291 5.89962C8.33873 6.07544 8.4375 6.31389 8.4375 6.56253V13.125C8.4375 13.9892 8.275 14.7142 7.95 15.3C7.65296 15.8459 7.18352 16.2779 6.615 16.5288C5.6075 16.9738 4.49375 16.7913 3.8125 16.5463C3.75924 16.5257 3.70745 16.5015 3.6575 16.4738L1.715 15.3413C1.57346 15.2587 1.45604 15.1404 1.37445 14.9983C1.29286 14.8562 1.24995 14.6952 1.25 14.5313V5.46878C1.24995 5.30491 1.29286 5.14388 1.37445 5.00175C1.45604 4.85963 1.57346 4.74138 1.715 4.65878L9.4825 0.127534ZM10.3075 6.60378C10.8038 6.01378 11.5788 5.62503 12.63 5.62503C13.605 5.62503 14.3487 5.96003 14.8525 6.49128C14.9401 6.58015 15.0091 6.68561 15.0554 6.80147C15.1017 6.91734 15.1244 7.04128 15.1222 7.16604C15.12 7.2908 15.0929 7.41386 15.0425 7.52801C14.9921 7.64216 14.9194 7.7451 14.8287 7.8308C14.738 7.9165 14.6311 7.98323 14.5143 8.02709C14.3975 8.07094 14.2731 8.09104 14.1484 8.08619C14.0237 8.08135 13.9013 8.05166 13.7882 7.99887C13.6752 7.94609 13.5738 7.87126 13.49 7.77878C13.3787 7.66503 13.15 7.50003 12.6287 7.50003C12.0762 7.50003 11.8488 7.68503 11.7425 7.81003C11.6328 7.94343 11.5692 8.10875 11.5612 8.28128C11.5612 8.38503 11.6063 8.59003 11.7425 8.75253C11.8488 8.87753 12.0763 9.06253 12.63 9.06253C12.7196 9.0631 12.8087 9.07572 12.895 9.10003C13.67 9.21253 14.26 9.56003 14.665 10.0413C15.13 10.595 15.285 11.25 15.285 11.7188C15.285 12.1875 15.13 12.8425 14.665 13.3963C14.1688 13.9863 13.3937 14.375 12.3425 14.375C11.3675 14.375 10.6238 14.04 10.1213 13.5088C9.95662 13.327 9.86976 13.088 9.87928 12.843C9.8888 12.598 9.99395 12.3664 10.1722 12.198C10.3504 12.0296 10.5875 11.9377 10.8327 11.942C11.0779 11.9464 11.3116 12.0466 11.4838 12.2213C11.5925 12.3363 11.8225 12.5 12.3425 12.5C12.895 12.5 13.1237 12.315 13.23 12.19C13.3393 12.0565 13.4024 11.8912 13.41 11.7188C13.402 11.5463 13.3385 11.3809 13.2288 11.2475C13.1238 11.1225 12.895 10.9375 12.3425 10.9375C12.2525 10.9371 12.1629 10.9245 12.0763 10.9C11.3013 10.7875 10.7113 10.44 10.3075 9.95878C9.91405 9.48748 9.69469 8.89517 9.68625 8.28128C9.68625 7.81253 9.84125 7.15753 10.3075 6.60378Z" fill="white"/>
</g>
<defs>
<clipPath id="clip0_178_142">
<rect width="20" height="20" fill="white"/>
</clipPath>
</defs>
</svg>
