<svg width="20" height="20" viewBox="0 0 20 20" fill="none" xmlns="http://www.w3.org/2000/svg">
<path d="M3.33581 13.1067C3.25303 12.9754 3.20854 12.8237 3.20736 12.6685C3.20618 12.5133 3.24836 12.3609 3.32914 12.2284L9.56164 2.06254C9.64026 1.93456 9.75214 1.83031 9.88534 1.76091C10.0185 1.69151 10.1681 1.65955 10.318 1.66845C10.4679 1.67734 10.6127 1.72676 10.7367 1.81142C10.8608 1.89609 10.9595 2.01283 11.0225 2.14921L16.7158 14.4992C16.7654 14.6071 16.7913 14.7243 16.7917 14.843C16.7922 14.9617 16.7672 15.0791 16.7183 15.1873C16.6695 15.2955 16.5981 15.392 16.5088 15.4703C16.4195 15.5485 16.3145 15.6067 16.2008 15.6409L7.34414 18.2992C7.17085 18.3512 6.98531 18.3451 6.81577 18.282C6.64623 18.2188 6.50198 18.1019 6.40498 17.9492L3.33581 13.1067ZM10.2808 5.03504L8.08914 15.95C8.07858 16.0026 8.0818 16.057 8.09847 16.1079C8.11514 16.1589 8.14471 16.2047 8.18429 16.2408C8.22388 16.2769 8.27214 16.3022 8.32439 16.3142C8.37663 16.3262 8.43109 16.3245 8.48248 16.3092L14.6016 14.4825C14.6438 14.47 14.6828 14.4487 14.7161 14.42C14.7494 14.3913 14.7763 14.3558 14.7949 14.316C14.8134 14.2761 14.8234 14.2328 14.824 14.1888C14.8246 14.1448 14.8158 14.1012 14.7983 14.0609L10.8716 4.97337C10.8458 4.91192 10.8008 4.86042 10.7434 4.82647C10.686 4.79252 10.6193 4.77792 10.5529 4.78483C10.4866 4.79175 10.4243 4.8198 10.3751 4.86485C10.326 4.90991 10.2935 4.96957 10.2808 5.03504Z" fill="white"/>
</svg>
