<svg width="20" height="20" viewBox="0 0 20 20" fill="none" xmlns="http://www.w3.org/2000/svg">
<path d="M9.99996 8.42503C10.8583 8.42503 11.5583 9.12503 11.5583 10C11.5583 10.8334 10.8583 11.5417 9.99996 11.5417C9.14163 11.5417 8.44163 10.8334 8.44163 10C8.44163 9.12503 9.14163 8.42503 9.99996 8.42503ZM6.14163 16.6667C6.66663 16.9834 7.81663 16.5 9.14163 15.25C8.70829 14.7584 8.28329 14.225 7.88329 13.6667C7.21181 13.602 6.54422 13.5018 5.88329 13.3667C5.45829 15.15 5.61663 16.375 6.14163 16.6667ZM6.73329 11.8834L6.49163 11.4584C6.39996 11.7 6.30829 11.9417 6.24996 12.175C6.47496 12.225 6.72496 12.2667 6.98329 12.3084L6.73329 11.8834ZM12.1833 11.25L12.8583 10L12.1833 8.75003C11.9333 8.30837 11.6666 7.9167 11.425 7.52503C10.975 7.50003 10.5 7.50003 9.99996 7.50003C9.49996 7.50003 9.02496 7.50003 8.57496 7.52503C8.33329 7.9167 8.06663 8.30837 7.81663 8.75003L7.14163 10L7.81663 11.25C8.06663 11.6917 8.33329 12.0834 8.57496 12.475C9.02496 12.5 9.49996 12.5 9.99996 12.5C10.5 12.5 10.975 12.5 11.425 12.475C11.6666 12.0834 11.9333 11.6917 12.1833 11.25ZM9.99996 5.65003C9.84163 5.83337 9.67496 6.02503 9.50829 6.25003H10.4916C10.325 6.02503 10.1583 5.83337 9.99996 5.65003ZM9.99996 14.35C10.1583 14.1667 10.325 13.975 10.4916 13.75H9.50829C9.67496 13.975 9.84163 14.1667 9.99996 14.35ZM13.85 3.33337C13.3333 3.0167 12.1833 3.50003 10.8583 4.75003C11.2916 5.2417 11.7166 5.77503 12.1166 6.33337C12.8 6.40003 13.475 6.50003 14.1166 6.63337C14.5416 4.85003 14.3833 3.62503 13.85 3.33337ZM13.2666 8.1167L13.5083 8.5417C13.6 8.30003 13.6916 8.05837 13.75 7.82503C13.525 7.77503 13.275 7.73337 13.0166 7.6917L13.2666 8.1167ZM14.475 2.2417C15.7 2.9417 15.8333 4.78337 15.3166 6.93337C17.4333 7.55837 18.9583 8.5917 18.9583 10C18.9583 11.4084 17.4333 12.4417 15.3166 13.0667C15.8333 15.2167 15.7 17.0584 14.475 17.7584C13.2583 18.4584 11.6 17.6584 9.99996 16.1334C8.39996 17.6584 6.74163 18.4584 5.51663 17.7584C4.29996 17.0584 4.16663 15.2167 4.68329 13.0667C2.56663 12.4417 1.04163 11.4084 1.04163 10C1.04163 8.5917 2.56663 7.55837 4.68329 6.93337C4.16663 4.78337 4.29996 2.9417 5.51663 2.2417C6.74163 1.5417 8.39996 2.3417 9.99996 3.8667C11.6 2.3417 13.2583 1.5417 14.475 2.2417ZM14.2333 10C14.5166 10.625 14.7666 11.25 14.975 11.8834C16.725 11.3584 17.7083 10.6084 17.7083 10C17.7083 9.3917 16.725 8.6417 14.975 8.1167C14.7666 8.75003 14.5166 9.37503 14.2333 10ZM5.76663 10C5.48329 9.37503 5.23329 8.75003 5.02496 8.1167C3.27496 8.6417 2.29163 9.3917 2.29163 10C2.29163 10.6084 3.27496 11.3584 5.02496 11.8834C5.23329 11.25 5.48329 10.625 5.76663 10ZM13.2666 11.8834L13.0166 12.3084C13.275 12.2667 13.525 12.225 13.75 12.175C13.6916 11.9417 13.6 11.7 13.5083 11.4584L13.2666 11.8834ZM10.8583 15.25C12.1833 16.5 13.3333 16.9834 13.85 16.6667C14.3833 16.375 14.5416 15.15 14.1166 13.3667C13.475 13.5 12.8 13.6 12.1166 13.6667C11.7166 14.225 11.2916 14.7584 10.8583 15.25ZM6.73329 8.1167L6.98329 7.6917C6.72496 7.73337 6.47496 7.77503 6.24996 7.82503C6.30829 8.05837 6.39996 8.30003 6.49163 8.5417L6.73329 8.1167ZM9.14163 4.75003C7.81663 3.50003 6.66663 3.0167 6.14163 3.33337C5.61663 3.62503 5.45829 4.85003 5.88329 6.63337C6.54422 6.49824 7.21181 6.3981 7.88329 6.33337C8.28329 5.77503 8.70829 5.2417 9.14163 4.75003Z" fill="white"/>
</svg>
