<svg width="20" height="20" viewBox="0 0 20 20" fill="none" xmlns="http://www.w3.org/2000/svg">
<g clip-path="url(#clip0_180_168)">
<path d="M5.01531 9.60328C4.93719 10.587 5.80137 11.3115 6.39113 11.3115C6.98172 11.2839 9.28184 9.34563 9.28184 9.34563C10.3636 7.97746 10.3683 7.3691 10.3683 6.89094C10.2781 4.77988 6.43199 7.99523 5.01531 9.60328ZM14.5296 8.78617C15.0516 7.68125 14.3493 6.45402 12.8214 7.53195C11.6074 8.30359 10.0356 9.89102 9.2834 10.5124C8.93449 11.2171 9.81895 13.1511 11.2205 12.13C12.8771 10.9264 14.0869 9.79465 14.5296 8.78617ZM15.9514 2.10211L16.2879 0H20V3.83727L18.6396 3.85352L17.0015 9.40172C17.1034 11.3598 16.1105 11.3917 15.9836 12.2902C15.6648 14.5484 13.1395 16.3961 12.174 16.3961C11.53 16.3775 11.0593 15.6394 10.9012 14.9963C12.7168 12.9881 15.1584 11.4099 15.1584 11.4099C15.3108 10.3538 14.9757 10.0175 16.1026 9.11758L17.1779 3.46375C16.2596 2.8573 15.8311 2.86672 15.9514 2.10211ZM8.70586 11.4654C9.64734 13.3624 11.0077 13.4119 13.1168 10.9967C13.1669 11.22 13.2218 11.4539 13.1211 12.0156C8.83062 15.8531 4.78961 19.5879 3.55957 20H0V19.0453C0.578906 18.2425 5.33 14.3238 8.70586 11.4654ZM15.0468 15.1384C14.8536 16.7805 13.3566 18.2173 11.3561 20H5.01609L10.3609 15.4979C11.2836 17.5977 12.9224 17.2935 15.0468 15.1384M7.54922 11.4113L0 17.8459V13.6713L4.44258 10.0547C4.68023 11.4008 6.13613 12.5862 7.54922 11.4114" fill="white"/>
</g>
<defs>
<clipPath id="clip0_180_168">
<rect width="20" height="20" fill="white"/>
</clipPath>
</defs>
</svg>
