<svg width="20" height="20" viewBox="0 0 20 20" fill="none" xmlns="http://www.w3.org/2000/svg">
<path d="M10 4C7.51113 4 5.95558 5.33333 5.33335 8C6.26669 6.66667 7.35558 6.16667 8.60002 6.5C9.31069 6.69067 9.81735 7.24267 10.3787 7.85333C11.2947 8.848 12.3534 10 14.6667 10C17.1556 10 18.7111 8.66667 19.3334 6C18.4 7.33333 17.3111 7.83333 16.0667 7.5C15.356 7.30933 14.8494 6.75733 14.288 6.14667C13.372 5.152 12.3134 4 10 4ZM5.33335 10C2.84446 10 1.28891 11.3333 0.666687 14C1.60002 12.6667 2.68891 12.1667 3.93335 12.5C4.64402 12.6907 5.15069 13.2427 5.71202 13.8533C6.62802 14.848 7.68669 16 10 16C12.4889 16 14.0445 14.6667 14.6667 12C13.7334 13.3333 12.6445 13.8333 11.4 13.5C10.6894 13.3093 10.1827 12.7573 9.62135 12.1467C8.70535 11.152 7.64669 10 5.33335 10Z" stroke="white" stroke-linejoin="round"/>
</svg>
