<svg width="451" height="219" viewBox="0 0 451 219" fill="none" xmlns="http://www.w3.org/2000/svg">
<path d="M336.045 218.016L374.487 0L398.419 2.06608e-06L359.977 218.016H336.045Z" fill="white"/>
<path d="M427.497 218.016C416.772 194.052 405.671 172.862 401.328 153.453C396.723 132.873 399.02 112.567 415.936 91.4344C421.432 84.5686 423.809 78.6748 424.418 73.7155C425.029 68.7408 423.977 63.7567 421.012 58.8112C414.892 48.6051 401.019 39.3931 381.381 33.8536L391.685 11.0495C413.938 17.3265 433.029 28.5721 442.542 44.4363C447.393 52.5259 449.825 61.9803 448.537 72.4687C447.247 82.9725 442.341 93.5666 434.122 103.835C423.607 116.971 421.607 129.086 425.117 144.768C428.888 161.621 438.572 179.955 450.058 205.62L427.497 218.016Z" fill="white"/>
<path d="M295.417 178.369L316.357 59.6124H340.289L319.349 178.369L295.417 178.369Z" fill="white"/>
<path d="M271.091 49.1251H295.022L280.739 130.132L255.858 135.515L271.091 49.1251Z" fill="white"/>
<path d="M253.293 150.058L278.174 144.675L273.978 168.473H250.046L253.293 150.058Z" fill="white"/>
<path d="M300.503 158.281L272.205 178.531H248.273L251.164 162.135L302.039 149.566L300.503 158.281Z" fill="white"/>
<path d="M317.325 60.6032L296.548 40.4718H272.64L269.71 56.9536L315.788 69.3179L317.325 60.6032Z" fill="white"/>
<path d="M315.778 198.619L291.847 198.619L293.878 187.098L317.81 187.098L315.778 198.619Z" fill="white"/>
<path d="M114.269 2.89627e-05L75.8271 218.016L51.8952 218.016L90.3374 2.48305e-05L114.269 2.89627e-05Z" fill="white"/>
<path d="M22.8175 1.31723e-05C33.5423 23.9643 44.643 45.1541 48.9863 64.5632C53.5916 85.1428 51.2948 105.45 34.3786 126.582C28.8826 133.448 26.5053 139.341 25.8962 144.301C25.2852 149.275 26.3373 154.259 29.3028 159.205C35.4229 169.411 49.2955 178.623 68.9339 184.163L58.629 206.967C36.3763 200.69 17.2852 189.444 7.77223 173.58C2.92131 165.49 0.489577 156.036 1.77779 145.548C3.06793 135.044 7.97295 124.45 16.1927 114.181C26.7079 101.045 28.707 88.9304 25.1976 73.2479C21.4263 56.3948 11.7424 38.0612 0.256408 12.3959L22.8175 1.31723e-05Z" fill="white"/>
<path d="M154.723 40.6336L133.783 159.39H109.851L130.792 40.6336L154.723 40.6336Z" fill="white"/>
<path d="M179.05 169.878H155.118L169.402 88.8706L194.283 83.4876L179.05 169.878Z" fill="white"/>
<path d="M196.847 68.9448L171.966 74.3274L176.162 50.5301L200.094 50.5301L196.847 68.9448Z" fill="white"/>
<path d="M149.638 60.7219L177.936 40.4719L201.868 40.4719L198.977 56.8674L148.101 69.4366L149.638 60.7219Z" fill="white"/>
<path d="M132.815 158.4L153.592 178.531H177.501L180.43 162.049L134.352 149.685L132.815 158.4Z" fill="white"/>
<path d="M134.362 20.3836L158.294 20.3836L156.263 31.9048L132.331 31.9048L134.362 20.3836Z" fill="white"/>
<path d="M199.281 188.032H186.717L188.488 177.987H201.052L225.404 39.881H214.635L213.187 30.8348C219.082 26.9881 222.99 23.4411 225.838 19.1125C228.634 14.8647 230.706 9.41213 232.19 1.37669L232.332 0.590836L232.358 0.443129L256.29 0.443131L251.107 29.8369H263.522L261.75 39.881H249.336L224.984 177.987L235.603 177.987L237.051 187.034C231.156 190.88 227.248 194.427 224.4 198.756C222.125 202.212 220.33 206.466 218.941 212.261L217.978 217.721H194.046L199.281 188.032Z" fill="white"/>
</svg>

