<svg width="1151" height="664" viewBox="0 0 1151 664" fill="none" xmlns="http://www.w3.org/2000/svg">
<path d="M652.011 77.9707L705.603 73.4223L698.119 115.864L644.527 120.413L570.966 537.599L616.469 533.737L620.325 572.669C592.865 587.614 577.986 599.051 568.711 610.397C559.752 621.356 553.796 634.975 549.817 657.54L549.762 657.852L486.058 663.258L499.778 585.448L446.692 589.953L454.176 547.511L507.262 543.006L580.823 125.819L535.826 129.638L531.97 90.7061C559.43 75.761 574.309 64.3244 583.584 52.9781C590.608 44.3864 595.784 34.1601 599.611 19.2693L602.055 5.40654L665.759 0L652.011 77.9707Z" fill="white"/>
<path d="M538.235 201.945L526.253 269.897L462.54 275.304L469.051 238.374L435.172 241.249L402.96 423.931L436.84 421.056L458.546 297.955L522.259 292.547L495.083 446.67L457.757 480.395L360.163 488.678L333.776 460.36L376.928 215.635L414.255 181.91L511.848 173.627L538.235 201.945Z" fill="white"/>
<path d="M358.1 155.96L349.417 205.2L285.703 210.607L294.386 161.367L358.1 155.96Z" fill="white"/>
<path d="M267.437 77.3178L203.708 438.742L163.083 442.19C158.047 443.505 151.734 445.586 145.422 448.697C133.233 454.703 123.093 463.089 118.579 478.618C116.787 490.081 118.7 496.662 121.091 500.729C123.736 505.229 128.116 508.552 133.902 510.9C139.76 513.277 146.26 514.315 151.592 514.686C154.181 514.867 156.299 514.877 157.655 514.85C158.327 514.837 158.796 514.814 159.022 514.802C159.07 514.799 159.107 514.797 159.132 514.796L232.741 508.548L280.234 239.204L343.948 233.796L285.515 565.184C239.624 569.079 193.733 572.974 147.842 576.868C147.694 576.88 147.501 576.895 147.264 576.912C146.949 576.934 146.556 576.959 146.091 576.985C145.162 577.035 143.94 577.087 142.469 577.116C139.538 577.173 135.562 577.142 130.917 576.818C121.779 576.182 109.254 574.363 96.8879 569.344C84.4495 564.296 71.4061 555.683 62.7849 541.018C54.0032 526.081 50.8643 506.631 55.0945 482.64L55.3318 481.294L55.6878 479.943C67.6545 434.547 101.342 408.089 128.797 394.56C133.484 392.25 138.046 390.276 142.375 388.59L64.6404 181.835L0.344638 201.843L1.68242 171.658L42.569 117.744L114.715 98.0399L171.478 265.597L203.723 82.7252L267.437 77.3178Z" fill="white"/>
<path d="M613.622 461.17L625.58 393.22L689.289 387.84L682.79 424.769L716.667 421.908L748.813 239.232L714.936 242.093L693.274 365.19L629.565 370.571L656.686 216.453L693.999 182.742L791.585 174.501L817.981 202.831L774.917 447.549L737.604 481.259L640.018 489.5L613.622 461.17Z" fill="white"/>
<path d="M792.882 507.969L801.564 458.729L865.278 453.322L856.595 502.562L792.882 507.969Z" fill="white"/>
<path d="M883.544 586.611L947.273 225.187L987.898 221.739C992.935 220.424 999.247 218.343 1005.56 215.232C1017.75 209.226 1027.89 200.84 1032.4 185.311C1034.19 173.848 1032.28 167.267 1029.89 163.2C1027.24 158.7 1022.86 155.377 1017.08 153.029C1011.22 150.652 1004.72 149.614 999.389 149.243C996.801 149.062 994.682 149.052 993.326 149.079C992.654 149.092 992.185 149.115 991.959 149.127C991.911 149.13 991.874 149.132 991.849 149.133L918.24 155.381L870.747 424.725L807.033 430.133L865.466 98.7451C911.357 94.8503 957.248 90.9555 1003.14 87.0607C1003.29 87.0487 1003.48 87.034 1003.72 87.0174C1004.03 86.9952 1004.43 86.9697 1004.89 86.9443C1005.82 86.8936 1007.04 86.8421 1008.51 86.8132C1011.44 86.7555 1015.42 86.7871 1020.06 87.1106C1029.2 87.7471 1041.73 89.5657 1054.09 94.5846C1066.53 99.6327 1079.58 108.246 1088.2 122.911C1096.98 137.848 1100.12 157.298 1095.89 181.289L1095.65 182.635L1095.29 183.986C1083.33 229.382 1049.64 255.84 1022.18 269.369C1017.5 271.679 1012.93 273.653 1008.61 275.339L1086.34 482.094L1150.64 462.086L1149.3 492.271L1108.41 546.185L1036.27 565.889L979.503 398.332L947.258 581.204L883.544 586.611Z" fill="white"/>
</svg>
