<svg width="24" height="24" viewBox="0 0 24 24" fill="none" xmlns="http://www.w3.org/2000/svg">
<path d="M19.2685 5.33C17.9385 4.71 16.4985 4.26 14.9985 4C14.9721 4.00038 14.9469 4.01116 14.9285 4.03C14.7485 4.36 14.5385 4.79 14.3985 5.12C12.8075 4.88015 11.1895 4.88015 9.59847 5.12C9.45847 4.78 9.24847 4.36 9.05847 4.03C9.04847 4.01 9.01847 4 8.98847 4C7.48847 4.26 6.05847 4.71 4.71847 5.33C4.70847 5.33 4.69847 5.34 4.68847 5.35C1.96847 9.42 1.21847 13.38 1.58847 17.3C1.58847 17.32 1.59847 17.34 1.61847 17.35C3.41847 18.67 5.14847 19.47 6.85847 20C6.88847 20.01 6.91847 20 6.92847 19.98C7.32847 19.43 7.68847 18.85 7.99847 18.24C8.01847 18.2 7.99847 18.16 7.95847 18.15C7.38847 17.93 6.84847 17.67 6.31847 17.37C6.27847 17.35 6.27847 17.29 6.30847 17.26C6.41847 17.18 6.52847 17.09 6.63847 17.01C6.65847 16.99 6.68847 16.99 6.70847 17C10.1485 18.57 13.8585 18.57 17.2585 17C17.2785 16.99 17.3085 16.99 17.3285 17.01C17.4385 17.1 17.5485 17.18 17.6585 17.27C17.6985 17.3 17.6985 17.36 17.6485 17.38C17.1285 17.69 16.5785 17.94 16.0085 18.16C15.9685 18.17 15.9585 18.22 15.9685 18.25C16.2885 18.86 16.6485 19.44 17.0385 19.99C17.0685 20 17.0985 20.01 17.1285 20C18.8485 19.47 20.5785 18.67 22.3785 17.35C22.3985 17.34 22.4085 17.32 22.4085 17.3C22.8485 12.77 21.6785 8.84 19.3085 5.35C19.2985 5.34 19.2885 5.33 19.2685 5.33ZM8.51847 14.91C7.48847 14.91 6.62847 13.96 6.62847 12.79C6.62847 11.62 7.46847 10.67 8.51847 10.67C9.57847 10.67 10.4185 11.63 10.4085 12.79C10.4085 13.96 9.56847 14.91 8.51847 14.91ZM15.4885 14.91C14.4585 14.91 13.5985 13.96 13.5985 12.79C13.5985 11.62 14.4385 10.67 15.4885 10.67C16.5485 10.67 17.3885 11.63 17.3785 12.79C17.3785 13.96 16.5485 14.91 15.4885 14.91Z" fill="white"/>
</svg>
