<svg width="25" height="24" viewBox="0 0 25 24" fill="none" xmlns="http://www.w3.org/2000/svg">
<path fill-rule="evenodd" clip-rule="evenodd" d="M6.16901 4.76001C6.19602 4.53295 6.27562 4.31532 6.40149 4.12442C6.52736 3.93352 6.69604 3.77462 6.89409 3.66035C7.09215 3.54608 7.31414 3.47959 7.5424 3.46616C7.77067 3.45273 7.99892 3.49274 8.20901 3.58301C9.27101 4.03701 11.651 5.11601 14.671 6.85901C17.692 8.60301 19.817 10.126 20.74 10.817C21.528 11.408 21.53 12.58 20.741 13.173C19.827 13.86 17.728 15.363 14.671 17.129C11.611 18.895 9.25901 19.961 8.20701 20.409C7.30101 20.796 6.28701 20.209 6.16901 19.232C6.03101 18.09 5.77301 15.497 5.77301 11.995C5.77301 8.49501 6.03001 5.90301 6.16901 4.76001Z" fill="white"/>
</svg>
